<svg width="49" height="49" viewBox="0 0 49 49" fill="none" xmlns="http://www.w3.org/2000/svg">
<g clip-path="url(#clip0_895_5)">
<path d="M15.0801 36.2499C15.0801 36.8288 14.966 37.4021 14.7445 37.937C14.5229 38.4718 14.1982 38.9578 13.7888 39.3672C13.3795 39.7766 12.8935 40.1013 12.3586 40.3228C11.8237 40.5444 11.2504 40.6584 10.6715 40.6584C10.0926 40.6584 9.51929 40.5444 8.98442 40.3228C8.44955 40.1013 7.96355 39.7766 7.55418 39.3672C7.1448 38.9578 6.82007 38.4718 6.59852 37.937C6.37697 37.4021 6.26294 36.8288 6.26294 36.2499L10.6715 36.2499H15.0801Z" fill="black"/>
<path d="M24.7075 36.2499C24.7075 36.8288 24.5935 37.4021 24.3719 37.937C24.1504 38.4718 23.8256 38.9578 23.4163 39.3672C23.0069 39.7766 22.5209 40.1013 21.986 40.3228C21.4512 40.5444 20.8779 40.6584 20.2989 40.6584C19.72 40.6584 19.1467 40.5444 18.6119 40.3228C18.077 40.1013 17.591 39.7766 17.1816 39.3672C16.7722 38.9578 16.4475 38.4718 16.226 37.937C16.0044 37.4021 15.8904 36.8288 15.8904 36.2499L20.2989 36.2499H24.7075Z" fill="black"/>
<path d="M42.3479 36.2499C42.3479 37.4191 41.8834 38.5404 41.0566 39.3672C40.2299 40.194 39.1085 40.6584 37.9393 40.6584C36.7701 40.6584 35.6488 40.194 34.822 39.3672C33.9952 38.5404 33.5308 37.4191 33.5308 36.2499L37.9393 36.2499H42.3479Z" fill="black"/>
<path d="M23.2022 17.0686L3.59521 24.8673L4.05487 26.0704L6.34137 25.2529L6.34126 32.7688H8.86837V33.3337H4.5209V36.6422H41.7904H45.6227H47.8678V30.8124V22.8173H43.4191H36.6102L25.9226 33.3337H20.4821V32.7688H22.0245L22.0246 26.3449L20.4822 24.9377H7.32761L11.9487 23.1465L23.7722 18.4613L23.2022 17.0686Z" fill="black"/>
<path d="M0.30542 16.6858L29.1215 5.20565L31.1665 6.18471L30.4142 8.41542L1.59811 19.8956L0.30542 16.6858Z" fill="black"/>
<path d="M1.85864 20.5425L30.7137 9.04683L32.7605 10.0251L32.0064 12.2566L3.15134 23.7522L1.85864 20.5425Z" fill="black"/>
</g>
<defs>
<clipPath id="clip0_895_5">
<rect width="48" height="48" fill="white" transform="translate(0.30542 0.432617)"/>
</clipPath>
</defs>
</svg>
