<svg width="48" height="48" viewBox="0 0 48 48" fill="none" xmlns="http://www.w3.org/2000/svg">
<path d="M33.3438 22.9738V24.2432H33.8092V23.0052C33.8092 22.9253 33.7445 22.8606 33.6646 22.8606V21.6272H33.457V22.8606C33.3945 22.8606 33.3438 22.9113 33.3438 22.9738Z" fill="black"/>
<path d="M39.2124 26.3947L39.4501 24.7625L40.0329 24.4802L39.5216 26.6893L39.2124 26.3947Z" fill="black"/>
<path d="M0 25.2667V29.7362L0.360902 31.5985L0.721804 33.4607L6.85714 38.2336H37.8947L44.0301 34.2056L46.1955 31.9709H46.3445C47.1101 31.9709 47.612 31.1701 47.2782 30.4811L48 29.3637L40.782 27.5015L38.6165 25.2667V22.6596H36.812V24.5218H35.7293V22.2871H35.0075L34.6466 24.1494H33.9248H33.203L31.7594 24.5218L31.0376 23.7769L31.3985 23.4045L31.0376 23.032H29.594L29.2331 23.4045L29.594 23.7769L28.5113 25.2667H19.6692H11.9098V24.5218H11.188V22.2871H8.30075V25.2667H7.81827V24.1494H1.44361V25.2667H0Z" fill="black"/>
<rect x="36.8181" y="22.6625" width="2.52015" height="1.75884" fill="black"/>
<path d="M38.9788 22.6625H39.6091C40.219 22.6625 40.7133 23.1568 40.7133 23.7667V23.7667C40.7133 24.3765 40.219 24.8708 39.6091 24.8708H38.9788V22.6625Z" fill="black"/>
<rect width="14.5193" height="1.24661" transform="matrix(0.996616 -0.0821936 0.0772051 0.997015 4.31714 19.5764)" fill="black"/>
<rect width="0.514321" height="1.46148" transform="matrix(-0.996616 0.0821936 0.0772051 0.997015 19.2915 18.2336)" fill="black"/>
<rect width="0.514321" height="1.46148" transform="matrix(-0.996616 0.0821936 0.0772051 0.997015 15.0425 18.5841)" fill="black"/>
<rect width="0.127787" height="1.39552" transform="matrix(-0.996616 0.0821936 0.0772051 0.997015 4.55273 19.4823)" fill="black"/>
<ellipse cx="6.43228" cy="21.6692" rx="0.59878" ry="0.617945" fill="black"/>
<path d="M7.82168 20.8685L6.74585 21.3324V21.9648L7.68551 21.4448V21.5994H7.93066V21.8946H8.10771V21.6837H8.27114V21.2059H9.68754L9.38791 21.8946H9.08829L9.31982 22.0913V22.6114H10.3821V22.26L10.5728 21.9648H11.2946V21.2059H11.9211V21.4448L11.4784 21.73L11.9211 22.26L15.0455 21.9965C15.2816 21.9766 15.4941 21.8452 15.6173 21.6428L15.6318 21.6189C15.7996 21.3432 15.7592 20.9889 15.5337 20.7581C15.4008 20.622 15.2186 20.5453 15.0284 20.5453H14.713V20.2923H14.3317V19.8566H14.1138V20.2923H13.855V19.8566H13.2966V20.2923H13.0515V19.9409H12.3024V20.4188H11.1584L11.0631 20.1658L10.0008 20.2923L9.91906 20.5453H8.91124V20.2923L7.82168 20.4188V20.8685Z" fill="black"/>
</svg>
