<svg width="49" height="49" viewBox="0 0 49 49" fill="none" xmlns="http://www.w3.org/2000/svg">
<g clip-path="url(#clip0_235_916)">
<circle cx="11.2711" cy="36.2499" r="4.40856" fill="black"/>
<circle cx="20.8986" cy="36.2499" r="4.40856" fill="black"/>
<circle cx="38.5389" cy="36.2499" r="4.40856" fill="black"/>
<path d="M21.6954 28.6811H6.9409L0.905029 31.8428V34.3338H5.12054V36.2499H42.39C44.0763 36.2499 45.6475 34.9725 46.2224 34.3338H48.905V31.8428H46.2224V24.0823C46.2224 22.4727 44.7533 20.6012 44.0188 19.8667H34.3421V30.6931H21.6954V28.6811Z" fill="black"/>
<path d="M11.1832 22.4053C9.8048 22.4053 8.54443 21.8998 7.57738 21.0641L15.4987 13.4498C16.251 14.3928 16.7006 15.5879 16.7006 16.8879C16.7006 19.9351 14.2304 22.4053 11.1832 22.4053Z" fill="black"/>
<path d="M6.2247 20.9257C5.81246 20.4968 5.82593 19.815 6.2548 19.4027L13.9723 11.9844C14.4011 11.5721 15.083 11.5856 15.4952 12.0144C15.9075 12.4433 15.894 13.1252 15.4651 13.5374L7.74766 20.9558C7.3188 21.368 6.63695 21.3546 6.2247 20.9257Z" fill="black"/>
<path d="M7.76863 12.2135C7.76863 12.846 7.25592 13.3587 6.62345 13.3587C5.99099 13.3587 5.47827 12.846 5.47827 12.2135C5.47827 11.5811 5.99099 11.0684 6.62345 11.0684C7.25592 11.0684 7.76863 11.5811 7.76863 12.2135Z" fill="black"/>
<path fill-rule="evenodd" clip-rule="evenodd" d="M5.89035 11.6974L15.2999 12.425L10.698 16.8717L6.84856 13.1689L7.51696 19.167L6.73247 19.2544L5.89035 11.6974ZM7.40198 12.606L13.4895 13.0767L10.6968 15.7753L7.40198 12.606Z" fill="black"/>
<path fill-rule="evenodd" clip-rule="evenodd" d="M12.982 19.0961L21.3584 29.6939L21.0368 30.0947L10.1694 24.8364L7.34773 29.5634L6.89502 29.2932L12.982 19.0961ZM10.7859 24.549L20.2327 29.1199L15.4809 23.1079L10.7859 24.549ZM15.1301 22.6641L13.0426 20.0231L10.6442 24.041L15.1301 22.6641Z" fill="black"/>
</g>
<defs>
<clipPath id="clip0_235_916">
<rect width="48" height="48" fill="white" transform="translate(0.905029 0.432617)"/>
</clipPath>
</defs>
</svg>
