<svg width="49" height="49" viewBox="0 0 49 49" fill="none" xmlns="http://www.w3.org/2000/svg">
<g clip-path="url(#clip0_235_888)">
<rect x="24.2549" y="28.2671" width="0.618863" height="1.85659" fill="black"/>
<rect x="36.6372" y="28.886" width="0.618863" height="1.85659" fill="black"/>
<circle cx="24.5645" cy="31.052" r="1.54716" fill="black"/>
<circle cx="36.9467" cy="31.3614" r="1.23773" fill="black"/>
<path d="M1.87303 20.491H0.0344238L1.87303 24.1291L19.9073 26.046L20.3767 23.0338L19.164 22.3296H3.7117L1.87303 20.491Z" fill="black"/>
<rect x="3.43774" y="17.2831" width="44.5966" height="1.25183" fill="black"/>
<rect x="23.0173" y="16.6963" width="5.43764" height="2.46455" fill="black"/>
<path d="M28.4551 26.5166C28.4551 24.7227 29.9093 23.2684 31.7032 23.2684H38.2885C40.4411 23.2684 42.1861 25.0135 42.1861 27.1661C42.1861 28.5999 41.0237 29.7623 39.5898 29.7623H31.7008C29.9082 29.7623 28.4551 28.3091 28.4551 26.5166Z" fill="black"/>
<rect x="24.856" y="16.266" width="1.76042" height="4.49878" fill="black"/>
<path d="M19.0466 23.8624C19.0466 22.0004 20.5561 20.491 22.418 20.491H31.533C34.7914 20.491 37.4329 23.1325 37.4329 26.3909C37.4329 28.2529 35.9235 29.7623 34.0615 29.7623H24.9466C21.6881 29.7623 19.0466 27.1208 19.0466 23.8624Z" fill="black"/>
</g>
<defs>
<clipPath id="clip0_235_888">
<rect width="48" height="48" fill="white" transform="translate(0.0344238 0.432617)"/>
</clipPath>
</defs>
</svg>
