<svg width="49" height="49" viewBox="0 0 49 49" fill="none" xmlns="http://www.w3.org/2000/svg">
<g clip-path="url(#clip0_236_923)">
<path d="M37.2879 16.9495C42.0116 14.4554 44.3064 14.0643 48.907 14.0251C46.0262 17.7731 44.5092 19.3438 39.8507 21.8035L35.1643 24.2779L32.8076 28.7326L30.7992 29.7931L31.4821 26.222L14.4936 35.1917L12.4717 39.4698L5.94416 42.9163L6.54339 39.3894L3.30036 40.1385L1.66549 37.0421L3.98052 34.5354L0.906982 33.376L7.43456 29.9295L11.9308 30.3377L28.9192 21.368L25.762 20.2528L27.7705 19.1923L32.6014 19.4239C32.4077 19.5975 33.001 19.2129 37.2879 16.9495Z" fill="black"/>
</g>
<defs>
<clipPath id="clip0_236_923">
<rect width="48" height="48" fill="white" transform="translate(0.906982 0.432617)"/>
</clipPath>
</defs>
</svg>
