<svg width="48" height="49" viewBox="0 0 48 49" fill="none" xmlns="http://www.w3.org/2000/svg">
<path d="M9.6 18.6079H0L4.48 25.3279L2.24 26.2879V29.1679C6.79785 30.3516 9.60558 30.9121 15.04 31.7279H38.08C38.1867 31.3012 38.3152 30.8527 38.72 30.4479C39.5601 29.6078 40.32 29.4879 41.28 29.1679L48 27.8879L36.8 25.6479C36.3733 25.0079 35.584 23.7279 33.28 23.7279C30.976 23.7279 29.76 25.0079 29.44 25.6479H16.32L6.72 19.2479H9.6V18.6079Z" fill="black"/>
<rect x="18.8799" y="31.408" width="0.64" height="1.92" fill="black"/>
<rect x="32.9612" y="31.408" width="0.64" height="1.92" fill="black"/>
<circle cx="19.2001" cy="34.2879" r="1.6" fill="black"/>
<circle cx="33.281" cy="33.9679" r="1.28" fill="black"/>
</svg>
