<svg width="48" height="49" viewBox="0 0 48 49" fill="none" xmlns="http://www.w3.org/2000/svg">
<path d="M4.71479 24.4827H3.73341V28.2241L3.37157 28.5867C2.98206 28.9771 2.98206 29.6091 3.37157 29.9994L3.73341 30.362V32.5H5.1455C5.57617 32.5 5.95846 32.2242 6.09439 31.8156L6.40008 30.8965L12.8001 31.431L13.0404 31.6718C13.228 31.8598 13.4827 31.9655 13.7483 31.9655H37.9852C38.2508 31.9655 38.5055 31.8598 38.6931 31.6718L38.9334 31.431H43.2001C44.8001 31.2528 48.0001 30.6147 48.0001 28.2241C48.0001 25.8335 43.3779 25.1954 41.0667 25.0172H33.0334C32.7573 25.0172 32.5334 24.7933 32.5334 24.5172V21.7413C32.5334 21.189 32.0857 20.7413 31.5334 20.7413H25.9498C25.4453 20.7413 25.0199 21.117 24.9575 21.6176L24.5881 24.5791C24.5568 24.8294 24.3438 25.0172 24.0915 25.0172H22.9334C14.4001 25.0172 10.1334 25.0172 6.40008 26.6206L5.6096 25.0363C5.44036 24.6971 5.09387 24.4827 4.71479 24.4827Z" fill="black"/>
<path fill-rule="evenodd" clip-rule="evenodd" d="M0.8 29.0258V27.6896C1.11011 27.6896 1.37711 27.9089 1.43793 28.2137L1.6 29.0258H3.73333V29.5603H1.6L1.43793 30.3724C1.37711 30.6771 1.11011 30.8965 0.8 30.8965V29.5603H0.533333C0.386057 29.5603 0 29.3223 0 29.293C0 29.2638 0.386057 29.0258 0.533333 29.0258H0.8Z" fill="black"/>
<path fill-rule="evenodd" clip-rule="evenodd" d="M28.2666 21.2759V18.6023C28.2666 18.3078 28.5054 18.069 28.7999 18.069V18.069C29.0945 18.069 29.3333 18.3078 29.3333 18.6023V21.2759H28.2666ZM39.4666 25.5517V24.2483C39.4666 24.0826 39.6009 23.9483 39.7666 23.9483H40.2333C40.399 23.9483 40.5333 24.0826 40.5333 24.2483V25.5517H39.4666Z" fill="black"/>
<path d="M27.4666 17.2672V21.2759H28V17.2672C28 17.1196 27.8806 17 27.7333 17C27.586 17 27.4666 17.1196 27.4666 17.2672Z" fill="black"/>
<path d="M30.1333 18.6034V21.2759H30.4V18.6034H30.1333Z" fill="black"/>
<path d="M26.4 20.2069V21.2759H26.9333V19.9724C26.9333 19.8067 26.799 19.6724 26.6333 19.6724H26.4005C26.2529 19.6724 26.1333 19.7923 26.1333 19.9399V19.9399C26.1333 20.0872 26.2527 20.2069 26.4 20.2069V20.2069Z" fill="black"/>
</svg>
